<svg width="143" height="30" viewBox="0 0 143 30" fill="none" xmlns="http://www.w3.org/2000/svg">
<path d="M143 29.0565H139.095L132.423 21.564L125.783 29.0565H121.902L130.476 19.3785L122.367 10.2765H126.272L132.418 17.1795L138.534 10.2765H142.417L134.365 19.3665L143 29.055V29.0565ZM109.978 30C103.922 30 99.0126 25.3725 99.0126 19.665C99.0126 13.959 103.923 9.3345 109.98 9.3345C116.036 9.3345 120.945 13.9605 120.945 19.6665C120.945 25.374 116.034 30 109.976 30H109.978ZM110 12.126C106.769 12.126 103.857 13.9575 102.621 16.77C102.017 18.1454 101.859 19.6621 102.168 21.124C102.477 22.5858 103.237 23.9257 104.352 24.9705C105.477 26.0247 106.901 26.7409 108.448 27.0307C109.994 27.3205 111.596 27.1711 113.055 26.601C114.507 26.0406 115.751 25.08 116.629 23.8417C117.507 22.6034 117.978 21.1436 117.983 19.6485C117.983 15.4935 114.408 12.126 110 12.126ZM84.5491 29.52C78.4127 29.52 76.571 28.11 76.571 28.11V0.8595H79.563V10.74C81.125 10.065 82.8316 9.735 84.5491 9.78C90.6086 9.78 95.5209 13.938 95.5209 19.641C95.5209 25.3455 90.6039 29.52 84.546 29.52H84.5491ZM84.5491 12.6045C82.7655 12.6275 81.0295 13.1576 79.563 14.127V25.761C81.1153 26.4711 82.8306 26.7947 84.5491 26.7015C88.9554 26.7015 92.5288 23.8005 92.5288 19.653C92.5288 15.5055 88.9523 12.603 84.546 12.603L84.5491 12.6045ZM66.5971 0.858H69.5891V29.0505H66.5971V0.858ZM56.6233 0.858H59.6153V29.0505H56.6233V0.858ZM48.0464 5.055C47.7224 5.05698 47.4012 4.99802 47.1011 4.88149C46.801 4.76496 46.5278 4.59315 46.2973 4.37586C46.0667 4.15857 45.8833 3.90006 45.7574 3.61509C45.6315 3.33011 45.5656 3.02426 45.5636 2.715C45.5636 1.425 46.6761 0.3765 48.0464 0.3765C49.4183 0.3765 50.5293 1.425 50.5293 2.7165C50.5293 3.336 50.2684 3.9315 49.8017 4.371C49.3335 4.81027 48.7029 5.05598 48.0464 5.055ZM38.17 29.0505L27.7043 19.1895L37.1784 10.2555H41.4087L31.933 19.1895L42.3987 29.0505H38.17ZM24.7044 29.0505V0.858H27.6964V29.0505H24.7044ZM19.965 21.3825C19.965 26.094 15.983 29.5125 9.65643 29.5125C5.99886 29.4202 2.52781 27.9515 0 25.4265L2.11514 23.2215C4.09514 24.9975 6.42557 26.724 9.61557 26.724C13.1591 26.724 16.9793 24.852 16.9793 21.489C16.9793 18.6975 14.6237 16.875 9.67371 15.438C4.03229 13.8165 1.16914 11.613 1.16914 7.467C1.16914 3.366 4.85257 0 10.1011 0C14.0219 0 16.4749 1.575 18.8619 3.585L16.7829 5.763C14.6897 4.014 12.694 2.8305 10.2457 2.8305C7.21128 2.8305 4.213 4.6755 4.213 7.3305C4.213 9.7365 5.68071 11.2695 10.8633 12.7635C15.609 14.1405 19.965 16.2735 19.965 21.3825ZM49.6493 29.0505H46.6557V10.2555H49.6477V29.0505H49.6493Z" fill="#333333"/>
</svg>
